<svg viewBox="0 0 500 200" xmlns="http://www.w3.org/2000/svg">
    <style>
        path {
            fill: none;
        }
        path.green {
            stroke: LightGreen;
        }
        path.red {
            stroke: LightPink;
        }

        text {
            font-size: 8px;
        }
        text.value {
            fill: grey;
        }

        rect.green {
            fill: green;
        }
        rect.red {
            fill: red;
        }
    </style>

    <text x="10" y="5" class="label">Subscriptions</text>
    <text x="10" y="15" class="value">$45M</text>
    <rect x="10" y="20" width="30" height="60" class="green" />
    <path d="M 40,50
        C 80,50 80,90 120,90"
        stroke-width="60"
        class="green" />

    <text x="10" y="102.5" class="label">Services</text>
    <text x="10" y="112.5" class="value">$26M</text>
    <rect x="10" y="117.5" width="30" height="35" class="green" />
    <path d="M 40,135
        C 80,135 80,137 120,137"
        stroke-width="35"
        class="green" />

    <text x="10" y="162.5" class="label">Merch</text>
    <text x="10" y="172.5" class="value">$7M</text>
    <rect x="10" y="177.5" width="30" height="8" class="green" />
    <path d="M 40,180
        C 80,180 80,157 120,157"
        stroke-width="5"
        class="green" />

    <text x="120" y="175" class="label">Refunds</text>
    <text x="120" y="185" class="value">$3M</text>
    <rect x="120" y="188.5" width="30" height="3" class="red" />
    <path d="M 40,184
        C 80,184 80,190 120,190"
        stroke-width="3"
        class="red" />

    <text x="120" y="45" class="label">Revenue</text>
    <text x="120" y="55" class="value">$75M</text>
    <rect x="120" y="60" width="30" height="100" class="green" />

    <text x="230" y="25" class="label">Variable Cloud</text>
    <text x="230" y="35" class="value">$15M</text>
    <rect x="230" y="40" width="30" height="20" class="red" />
    <path d="M 150,70
        C 190,70 190,50 230,50"
        stroke-width="20"
        class="red" />

    <text x="230" y="70" class="label">Support</text>
    <text x="230" y="80" class="value">$1M</text>
    <rect x="230" y="85" width="30" height="1" class="red" />
    <path d="M 150,80.5
        C 190,80.5 190,85.5 230,85.5"
        stroke-width="1"
        class="red" />

    <text x="230" y="100" class="label">Gross Profit</text>
    <text x="230" y="110" class="value">$59M</text>
    <rect x="230" y="115" width="30" height="79" class="green" />
    <path d="M 150,120.5
        C 190,120.5 190,154.5 230,154.5"
        stroke-width="79"
        class="green" />

    <text x="340" y="10" class="label">Marketing</text>
    <text x="340" y="20" class="value">$15M</text>
    <rect x="340" y="25" width="30" height="20" class="red" />
    <path d="M 260,125
        C 300,125 300,35 340,35"
        stroke-width="20"
        class="red" />

    <text x="340" y="60" class="label">Development</text>
    <text x="340" y="70" class="value">$8M</text>
    <rect x="340" y="75" width="30" height="10" class="red" />
    <path d="M 260,140
        C 300,140 300,80 340,80"
        stroke-width="10"
        class="red" />

    <text x="340" y="100" class="label">Administration</text>
    <text x="340" y="110" class="value">$1M</text>
    <rect x="340" y="115" width="30" height="1" class="red" />
    <path d="M 260,145.5
        C 300,145.5 300,115.5 340,115.5"
        stroke-width="1"
        class="red" />

    <text x="340" y="130" class="label">EBITDA</text>
    <text x="340" y="140" class="value">$35M</text>
    <rect x="340" y="145" width="30" height="47" class="green" />
    <path d="M 260,170
        C 300,170 300,168.5 340,168.5"
        stroke-width="47"
        class="green" />
</svg>
